#!OML:ASF F:\VICON\USERDATA\INSTALL\rory3\rory3.ASF
:FULLY-SPECIFIED
:DEGREES
50
root 1.31811 18.6678 -8.79838 19.9935 -3.83015 3.38147
lowerback 2.72577 1.471 1.24885
upperback -5.82917 1.95179 -1.70038
thorax -7.51911 0.834534 -2.66167
lowerneck -18.0392 -3.16421 -5.74758
upperneck 14.5689 -3.1412 1.86372
head 7.57199 -1.64347 1.18001
rclavicle 5.46658e-016 -1.43125e-014
rhumerus 53.5236 28.657 -31.0143
rradius 57.9003
rwrist 9.93035
rhand -14.1906 -36.5578
rfingers 7.12502
rthumb 11.9454 -66.197
lclavicle 5.46658e-016 -1.43125e-014
lhumerus 51.6511 -17.1937 10.465
lradius 65.741
lwrist 23.2667
lhand -27.9228 -35.9293
lfingers 7.12502
lthumb -1.31138 -5.95354
rfemur -24.1153 16.3012 24.0015
rtibia 32.5144
rfoot 11.4125 -16.7472
rtoes -23.0827
lfemur -111.23 -3.23211 -19.5257
ltibia 100.302
lfoot -2.14495 6.42234
ltoes 1.27476
51
root 1.27387 19.0265 -8.36208 20.0782 -2.72814 3.75512
lowerback 2.87953 1.18751 1.3622
upperback -6.0943 1.56311 -1.92051
thorax -7.90887 0.619704 -2.93456
lowerneck -18.0827 -3.31492 -5.4717
upperneck 15.328 -3.41203 1.8049
head 7.83583 -1.76843 1.08083
rclavicle 2.65378e-014 -8.15017e-015
rhumerus 53.6265 27.9359 -29.8547
rradius 55.886
rwrist 9.70328
rhand -14.0704 -35.7508
rfingers 7.12502
rthumb 12.0613 -65.3832
lclavicle 2.65378e-014 -8.15017e-015
lhumerus 50.0963 -16.8294 9.41178
lradius 64.6139
lwrist 23.7869
lhand -27.3872 -33.7873
lfingers 7.12502
lthumb -0.794064 -3.80904
rfemur -21.9711 14.3476 24.3519
rtibia 29.8735
rfoot 16.1341 -18.0147
rtoes -22.5962
lfemur -112.036 -4.50071 -19.4084
ltibia 98.2799
lfoot -1.47319 6.34429
ltoes 1.81194
52
root 1.23641 19.3476 -7.92478 20.3626 -1.96705 3.71641
lowerback 2.73791 1.01548 1.70797
upperback -6.3126 1.34878 -1.98735
thorax -8.0682 0.485269 -3.18121
lowerneck -18.4257 -3.42854 -5.46075
upperneck 16.1335 -3.59816 2.00999
head 8.17537 -1.83878 1.118
rclavicle 1.57288e-014 1.98785e-016
rhumerus 53.8573 27.1851 -28.381
rradius 53.9401
rwrist 9.24957
rhand -14.0525 -35.2106
rfingers 7.12502
rthumb 12.0785 -64.842
lclavicle 1.57288e-014 1.98785e-016
lhumerus 48.286 -16.297 8.53909
lradius 63.3281
lwrist 24.158
lhand -26.7709 -32.8579
lfingers 7.12502
lthumb -0.198815 -2.8783
rfemur -20.1946 11.0908 25.1502
rtibia 27.8561
rfoot 18.5402 -19.2859
rtoes -22.7089
lfemur -113.095 -5.18324 -18.9593
ltibia 96.1928
lfoot -1.67937 6.60693
ltoes 3.69484
53
root 1.19653 19.6262 -7.49646 20.681 -1.63095 3.37004
lowerback 2.75261 0.945602 2.02024
upperback -6.35242 1.2774 -1.97233
thorax -8.12043 0.429378 -3.3359
lowerneck -19.6005 -3.49927 -5.53989
upperneck 17.0727 -3.71454 2.49178
head 8.71411 -1.84404 1.26261
rclavicle 6.68413e-015 6.16232e-015
rhumerus 54.3249 26.2579 -26.7716
rradius 52.0053
rwrist 9.35228
rhand -14.0007 -35.3171
rfingers 7.12502
rthumb 12.1284 -64.9456
lclavicle 6.68413e-015 6.16232e-015
lhumerus 46.2241 -15.2886 7.63276
lradius 61.9639
lwrist 24.1042
lhand -26.4094 -34.0162
lfingers 7.12502
lthumb 0.150294 -4.03656
rfemur -18.3128 6.49848 26.2373
rtibia 26.2744
rfoot 20.6938 -21.4527
rtoes -12.141
lfemur -114.15 -5.23024 -18.3365
ltibia 93.9053
lfoot -1.019 6.47927
ltoes 2.78364
54
root 1.14782 19.9149 -7.06959 21.0131 -1.77931 2.95833
lowerback 2.86891 1.03538 2.03477
upperback -6.9255 1.39909 -1.99443
thorax -8.80594 0.467235 -3.39817
lowerneck -18.5436 -3.43082 -5.27903
upperneck 17.2776 -3.83306 2.82319
head 8.60421 -1.85714 1.32961
rclavicle -1.12562e-014 -1.09332e-015
rhumerus 53.8675 26.3308 -25.5865
rradius 50.1119
rwrist 9.21248
rhand -14.132 -36.3222
rfingers 7.12502
rthumb 12.0018 -65.9581
lclavicle -1.12562e-014 -1.09332e-015
lhumerus 43.9433 -15.4891 6.34818
lradius 60.7919
lwrist 23.8596
lhand -27.2564 -36.481
lfingers 7.12502
lthumb -0.667742 -6.50229
rfemur -16.2186 3.40403 27.017
rtibia 25.0358
rfoot 23.5714 -18.7421
rtoes -11.0985
lfemur -114.656 -4.76037 -17.8905
ltibia 91.1669
lfoot -0.367596 6.49405
ltoes 1.56377
55
root 1.09071 20.194 -6.63805 21.3703 -2.22434 2.47869
lowerback 2.09015 1.14599 1.77932
upperback -6.97096 1.52668 -1.90788
thorax -8.39284 0.559198 -3.15183
lowerneck -17.6599 -3.30993 -4.92874
upperneck 16.8245 -3.85038 3.05931
head 8.29297 -1.82515 1.36072
rclavicle 1.799e-014 -1.45113e-014
rhumerus 53.0462 25.36 -26.2366
rradius 47.7379
rwrist 10.1505
rhand -13.8156 -36.6386
rfingers 7.12502
rthumb 12.3069 -66.2564
lclavicle 1.799e-014 -1.45113e-014
lhumerus 41.5472 -15.0152 5.24842
lradius 59.692
lwrist 23.749
lhand -26.8036 -33.965
lfingers 7.12502
lthumb -0.230357 -3.98536
rfemur -13.8412 1.6191 27.6858
rtibia 23.9996
rfoot 25.4314 -17.0041
rtoes -11.1417
lfemur -114.873 -3.87715 -17.5779
ltibia 88.1894
lfoot -0.252904 6.52459
ltoes 0.859464
56
root 1.02731 20.4609 -6.21599 21.926 -2.76229 1.77872
lowerback 1.28822 1.26889 1.62173
upperback -7.05808 1.68212 -1.78297
thorax -8.01247 0.657861 -2.92115
lowerneck -17.0837 -3.226 -4.59524
upperneck 16.4979 -3.90349 3.35563
head 8.08327 -1.80463 1.40581
rclavicle -4.31735e-016 -9.7653e-015
rhumerus 52.3872 24.444 -26.4592
rradius 45.9834
rwrist 10.6451
rhand -12.3409 -35.9906
rfingers 7.12502
rthumb 13.7285 -65.5177
lclavicle -4.31735e-016 -9.7653e-015
lhumerus 39.0118 -14.6106 4.07755
lradius 58.7029
lwrist 23.7851
lhand -26.8459 -32.4212
lfingers 7.12502
lthumb -0.271244 -2.4416
rfemur -11.7147 0.661084 28.5115
rtibia 23.0485
rfoot 30.7429 -15.6861
rtoes -11.1995
lfemur -115.089 -2.7036 -17.1981
ltibia 85.0457
lfoot 0.263178 6.34371
ltoes -0.0912953
57
root 0.964685 20.7167 -5.79599 22.5423 -3.40113 0.808136
lowerback 0.540267 1.45658 1.72108
upperback -7.17274 1.93881 -1.66595
thorax -7.68416 0.788124 -2.85024
lowerneck -17.001 -3.21082 -4.28024
upperneck 16.5977 -4.05282 3.75954
head 8.11041 -1.8152 1.4721
rclavicle -1.22812e-014 4.96962e-015
rhumerus 51.4861 23.452 -26.8179
rradius 44.497
rwrist 11.0459
rhand -11.2453 -35.3773
rfingers 7.12502
rthumb 14.7842 -64.83
lclavicle -1.22812e-014 4.96962e-015
lhumerus 36.5174 -14.349 2.74599
lradius 57.6693
lwrist 23.7207
lhand -28.0833 -32.149
lfingers 7.12502
lthumb -1.46635 -2.17429
rfemur -9.71644 -0.123415 29.5214
rtibia 22.1687
rfoot 33.2066 -13.3188
rtoes -14.0513
lfemur -115.221 -1.32563 -16.7061
ltibia 81.893
lfoot -0.593812 6.20009
ltoes 1.0977
58
root 0.908004 20.9639 -5.36516 22.9442 -4.16487 -0.0888846
lowerback -0.182214 1.66096 1.82074
upperback -7.20755 2.21048 -1.62495
thorax -7.2826 0.925396 -2.85425
lowerneck -17.0409 -3.14636 -3.86002
upperneck 16.8881 -4.15359 4.10885
head 8.21794 -1.79841 1.50773
rclavicle -8.39865e-015 2.98177e-015
rhumerus 50.495 22.6614 -27.0956
rradius 43.2117
rwrist 10.513
rhand -11.6698 -35.5758
rfingers 7.12502
rthumb 14.3752 -65.0581
lclavicle -8.39865e-015 2.98177e-015
lhumerus 34.2722 -13.948 1.82769
lradius 55.9464
lwrist 23.3881
lhand -29.6108 -32.4046
lfingers 7.12502
lthumb -2.94157 -2.44515
rfemur -7.5719 -0.267604 30.29
rtibia 21.2599
rfoot 34.6389 -9.99422
rtoes -13.1455
lfemur -114.968 0.0639848 -16.345
ltibia 78.7642
lfoot 1.68467 6.11027
ltoes -2.89485
59
root 0.851732 21.1999 -4.92235 22.8617 -5.21917 -1.1373
lowerback -0.512375 1.91631 1.97062
upperback -7.20096 2.55911 -1.52881
thorax -7.06076 1.09684 -2.84227
lowerneck -16.5763 -2.99714 -3.52192
upperneck 17.1659 -4.1465 4.51887
head 8.23102 -1.73573 1.59583
rclavicle 1.94064e-014 6.36111e-015
rhumerus 49.3203 22.1874 -27.5134
rradius 42.2838
rwrist 9.70509
rhand -12.2742 -36.6912
rfingers 7.12502
rthumb 13.7928 -66.2139
lclavicle 1.94064e-014 6.36111e-015
lhumerus 31.9877 -13.589 1.31092
lradius 53.8928
lwrist 23.0512
lhand -30.5287 -32.1402
lfingers 7.12502
lthumb -3.82799 -2.19485
rfemur -5.00951 0.91303 31.1248
rtibia 20.3324
rfoot 34.5403 -7.86614
rtoes -12.7383
lfemur -114.078 1.72562 -15.7575
ltibia 75.7093
lfoot 2.10356 6.19547
ltoes -2.18511
60
root 0.813506 21.4273 -4.48056 22.683 -6.01663 -2.20103
lowerback -0.617009 2.12248 2.4886
upperback -7.28013 2.85811 -1.42339
thorax -7.05035 1.2164 -3.03398
lowerneck -15.7558 -2.81881 -3.18104
upperneck 17.3841 -4.08102 4.82294
head 8.15541 -1.66183 1.65786
rclavicle -2.20651e-014 -2.38542e-015
rhumerus 47.7873 21.7761 -28.1257
rradius 41.7125
rwrist 9.34631
rhand -12.5546 -37.8918
rfingers 7.12502
rthumb 13.5225 -67.4328
lclavicle -2.20651e-014 -2.38542e-015
lhumerus 29.541 -13.5177 0.853687
lradius 52.1101
lwrist 22.9849
lhand -31.306 -31.8817
lfingers 7.12502
lthumb -4.57861 -1.95123
rfemur -2.48185 1.79869 32.0397
rtibia 19.4366
rfoot 34.7594 -5.76178
rtoes -11.335
lfemur -113.018 3.1046 -15.2479
ltibia 72.6579
lfoot 3.13831 6.0123
ltoes -3.45041
61
root 0.786213 21.6352 -4.03744 22.6408 -6.52255 -3.09732
lowerback -0.880829 2.29472 3.13239
upperback -7.36511 3.10717 -1.36662
thorax -6.94658 1.30401 -3.33557
lowerneck -15.3623 -2.63324 -2.65205
upperneck 17.7881 -3.96728 4.75501
head 8.20344 -1.5809 1.56613
rclavicle -2.49475e-014 -8.74653e-015
rhumerus 45.8979 21.3946 -28.4378
rradius 41.3632
rwrist 8.58923
rhand -13.5945 -38.6934
rfingers 7.12502
rthumb 12.5201 -68.2983
lclavicle -2.49475e-014 -8.74653e-015
lhumerus 27.0059 -13.4079 0.509261
lradius 50.6453
lwrist 22.8588
lhand -31.5967 -31.7759
lfingers 7.12502
lthumb -4.85928 -1.8516
rfemur -0.0510587 2.06987 32.8041
rtibia 18.4406
rfoot 35.3784 -4.60284
rtoes -9.59694
lfemur -112.092 4.11375 -15.0215
ltibia 69.6472
lfoot 4.2568 5.8322
ltoes -4.34857
62
root 0.76063 21.8124 -3.57901 22.8096 -6.6261 -3.88133
lowerback -1.6176 2.3966 3.88704
upperback -7.50693 3.24274 -1.30054
thorax -6.63371 1.3345 -3.66039
lowerneck -14.9566 -2.51072 -2.30441
upperneck 18.3335 -3.89619 4.6714
head 8.30209 -1.53134 1.49431
rclavicle -4.23908e-014 7.95139e-016
rhumerus 43.6584 21.3344 -28.1706
rradius 41.1203
rwrist 7.04415
rhand -15.0521 -39.0422
rfingers 7.12502
rthumb 11.1145 -68.7279
lclavicle -4.23908e-014 7.95139e-016
lhumerus 24.2862 -13.2096 0.433083
lradius 49.3783
lwrist 22.3217
lhand -31.5051 -31.8646
lfingers 7.12502
lthumb -4.77083 -1.9383
rfemur 2.11359 0.221952 33.1367
rtibia 17.5943
rfoot 35.689 -3.26677
rtoes -8.53025
lfemur -111.469 4.71553 -14.9384
ltibia 66.7372
lfoot 5.79798 5.40662
ltoes -3.4139
63
root 0.730079 21.9895 -3.11208 22.9715 -6.59426 -4.664
lowerback -2.53542 2.52424 4.63995
upperback -7.67114 3.39496 -1.16246
thorax -6.24401 1.37941 -3.89791
lowerneck -14.3916 -2.49788 -2.24138
upperneck 18.9554 -3.93807 4.70888
head 8.41035 -1.5435 1.49865
rclavicle 7.65321e-015 1.43125e-014
rhumerus 41.5118 21.087 -28.2132
rradius 40.8
rwrist 6.33326
rhand -15.6499 -38.9906
rfingers 7.12502
rthumb 10.5379 -68.7065
lclavicle 7.65321e-015 1.43125e-014
lhumerus 21.5153 -12.9491 0.6839
lradius 48.1401
lwrist 21.5073
lhand -31.4668 -32.0453
lfingers 7.12502
lthumb -4.73389 -2.11815
rfemur 4.2988 -1.09251 33.4603
rtibia 16.8397
rfoot 36.4298 -2.75995
rtoes -7.98303
lfemur -110.788 5.2582 -15.1349
ltibia 63.9173
lfoot 6.34842 4.96566
ltoes -6.67584
64
root 0.698828 22.1423 -2.64609 23.09 -6.79288 -5.5245
lowerback -3.4044 2.72144 5.29192
upperback -7.67502 3.62555 -0.944104
thorax -5.71176 1.48154 -3.98865
lowerneck -14.8007 -2.61001 -2.3082
upperneck 19.9659 -4.12632 4.72808
head 8.83715 -1.61542 1.49392
rclavicle -4.10987e-014 -1.74931e-014
rhumerus 39.4196 20.4766 -28.3822
rradius 40.4393
rwrist 6.35158
rhand -16.4724 -38.5483
rfingers 7.12502
rthumb 9.74444 -68.3029
lclavicle -4.10987e-014 -1.74931e-014
lhumerus 18.7678 -12.1342 1.21109
lradius 46.9091
lwrist 20.4625
lhand -30.6799 -31.506
lfingers 7.12502
lthumb -3.97406 -1.56329
rfemur 6.69597 -1.38168 33.8354
rtibia 15.8716
rfoot 37.7032 -3.26474
rtoes -6.15315
lfemur -110.099 6.07907 -15.4037
ltibia 61.3215
lfoot 7.37628 4.35291
ltoes -6.40362
